<mxfile host="app.diagrams.net" agent="Mozilla/5.0 (Windows NT 10.0; Win64; x64) AppleWebKit/537.36 (KHTML, like Gecko) Chrome/134.0.0.0 Safari/537.36 Edg/134.0.0.0" version="26.1.1">
  <diagram name="第 1 页" id="piG1GhBSpvHldzGPtxxr">
    <mxGraphModel dx="1410" dy="774" grid="1" gridSize="10" guides="1" tooltips="1" connect="1" arrows="1" fold="1" page="1" pageScale="1" pageWidth="827" pageHeight="1169" math="0" shadow="0">
      <root>
        <mxCell id="0" />
        <mxCell id="1" parent="0" />
        <mxCell id="3YudQQ2Kzjr6Bq_205Sz-5" style="edgeStyle=orthogonalEdgeStyle;rounded=0;orthogonalLoop=1;jettySize=auto;html=1;exitX=1;exitY=0;exitDx=0;exitDy=0;entryX=0;entryY=0.5;entryDx=0;entryDy=0;curved=1;" edge="1" parent="1" source="3YudQQ2Kzjr6Bq_205Sz-2" target="3YudQQ2Kzjr6Bq_205Sz-4">
          <mxGeometry relative="1" as="geometry" />
        </mxCell>
        <mxCell id="3YudQQ2Kzjr6Bq_205Sz-6" value="Message received from IMU task" style="edgeLabel;html=1;align=center;verticalAlign=middle;resizable=0;points=[];" vertex="1" connectable="0" parent="3YudQQ2Kzjr6Bq_205Sz-5">
          <mxGeometry x="-0.0194" y="1" relative="1" as="geometry">
            <mxPoint x="-59" y="-18" as="offset" />
          </mxGeometry>
        </mxCell>
        <mxCell id="3YudQQ2Kzjr6Bq_205Sz-2" value="idle" style="ellipse;whiteSpace=wrap;html=1;aspect=fixed;" vertex="1" parent="1">
          <mxGeometry x="150" y="310" width="80" height="80" as="geometry" />
        </mxCell>
        <mxCell id="3YudQQ2Kzjr6Bq_205Sz-8" style="edgeStyle=orthogonalEdgeStyle;rounded=0;orthogonalLoop=1;jettySize=auto;html=1;exitX=1;exitY=0.5;exitDx=0;exitDy=0;entryX=0.5;entryY=0;entryDx=0;entryDy=0;curved=1;" edge="1" parent="1" source="3YudQQ2Kzjr6Bq_205Sz-4" target="3YudQQ2Kzjr6Bq_205Sz-7">
          <mxGeometry relative="1" as="geometry" />
        </mxCell>
        <mxCell id="3YudQQ2Kzjr6Bq_205Sz-9" value="CNN process finished" style="edgeLabel;html=1;align=center;verticalAlign=middle;resizable=0;points=[];" vertex="1" connectable="0" parent="3YudQQ2Kzjr6Bq_205Sz-8">
          <mxGeometry x="-0.0667" y="1" relative="1" as="geometry">
            <mxPoint x="14" y="11" as="offset" />
          </mxGeometry>
        </mxCell>
        <mxCell id="3YudQQ2Kzjr6Bq_205Sz-4" value="CNN process" style="ellipse;whiteSpace=wrap;html=1;aspect=fixed;" vertex="1" parent="1">
          <mxGeometry x="290" y="220" width="80" height="80" as="geometry" />
        </mxCell>
        <mxCell id="3YudQQ2Kzjr6Bq_205Sz-10" style="edgeStyle=orthogonalEdgeStyle;rounded=0;orthogonalLoop=1;jettySize=auto;html=1;exitX=0.5;exitY=1;exitDx=0;exitDy=0;entryX=0.5;entryY=1;entryDx=0;entryDy=0;curved=1;" edge="1" parent="1" source="3YudQQ2Kzjr6Bq_205Sz-7" target="3YudQQ2Kzjr6Bq_205Sz-2">
          <mxGeometry relative="1" as="geometry" />
        </mxCell>
        <mxCell id="3YudQQ2Kzjr6Bq_205Sz-7" value="CNN finished(send message to haptic feedback task and WIFI task)" style="ellipse;whiteSpace=wrap;html=1;aspect=fixed;" vertex="1" parent="1">
          <mxGeometry x="400" y="310" width="120" height="120" as="geometry" />
        </mxCell>
      </root>
    </mxGraphModel>
  </diagram>
</mxfile>
